<?xml version="1.0" encoding="utf-8"?>
<!-- Generator: Adobe Illustrator 28.0.0, SVG Export Plug-In . SVG Version: 6.00 Build 0)  -->
<svg version="1.1" id="Capa_2_00000141439042668658992410000007204949347396933301_"
	 xmlns="http://www.w3.org/2000/svg" xmlns:xlink="http://www.w3.org/1999/xlink" x="0px" y="0px" viewBox="0 0 149.9 149.9"
	 style="enable-background:new 0 0 149.9 149.9;" xml:space="preserve">
<style type="text/css">
	.st0{fill:#FFFFFF;}
	.st1{fill:#3B589E;}
</style>
<g id="Capa_1-2">
	<g>
		<circle class="st0" cx="74.9" cy="75" r="74.9"/>
		<path class="st1" d="M95.7,146c0-17.9,0-35.7,0-53.6c0-0.7,0.2-1,0.9-1c4.8,0,9.5,0,14.3,0c0.7,0,1-0.2,1.1-0.9
			c0.6-5.2,1.3-10.5,2-15.7c0.1-0.5,0.1-1,0.2-1.4c0.1-0.5-0.1-0.7-0.6-0.7c-1,0-2,0-3,0c-4.6,0-9.3,0-13.9,0c-1,0-1,0-1-1
			c0-4.3,0-8.7,0.1-13c0.1-2.3,0.8-4.3,2.8-5.7c1.2-0.8,2.7-1.3,4.1-1.3c3.7-0.1,7.4-0.1,11.1-0.1c1,0,1,0,1-1c0-5,0-9.9,0-14.9
			c0-0.8-0.2-1-1-1c-5-0.4-9.9-0.7-14.9-0.5c-5.9,0.2-11.3,1.9-15.7,6.1c-2.7,2.6-4.5,5.8-5.6,9.4c-1,3.2-1.3,6.5-1.3,9.9
			c0,4,0,8.1,0,12.1c0,1.1,0,1.1-1.1,1.1c-4.7,0-9.3,0-14,0c-1,0-1,0-1,1c0,5.6,0,11.1,0,16.7c0,1,0,1,1,1c4.7,0,9.4,0,14,0
			c1,0,1,0,1,1c0,18.8,0,37.5,0,56.3c0,1.1,0,1-1,1.1c-4.7,0.1-9.4-0.4-14-1.2c-9.9-1.8-19.1-5.5-27.5-11.1
			c-5.8-3.9-11-8.4-15.6-13.7c-5.6-6.5-9.9-13.7-13.1-21.7c-1.4-3.7-2.5-7.4-3.4-11.2c-1.4-6.2-2-12.5-1.7-18.9
			c0.2-3.3,0.6-6.7,1.1-9.9c0.7-5,2.2-9.9,4.1-14.7c2.3-5.8,5.3-11.2,8.9-16.3c5.2-7.2,11.6-13.4,19-18.4c5.1-3.4,10.5-6.2,16.3-8.3
			c3.9-1.4,7.8-2.5,11.9-3.2c2.5-0.4,5-0.8,7.5-0.9C71.9,0,75-0.1,78,0c3.3,0.2,6.6,0.6,9.8,1.1c4.1,0.6,8.1,1.7,11.9,3
			c4.6,1.6,9.1,3.7,13.3,6.2c9.8,5.8,17.8,13.4,24.2,22.8c4,6,7.1,12.4,9.3,19.3c1.7,5.4,2.9,10.9,3.2,16.6c0.2,3.1,0.4,6.3,0.2,9.4
			c-0.2,3.6-0.8,7.3-1.4,10.9c-0.7,4.6-2.1,9-3.9,13.4c-4.3,10.6-10.6,19.8-19.1,27.6c-6.5,5.9-13.8,10.6-21.9,13.9
			c-2.5,1-7.6,2.7-7.6,2.7s-0.1,0-0.4,0.1C95.7,147,95.7,146.3,95.7,146z"/>
	</g>
</g>
</svg>
