<?xml version="1.0" encoding="UTF-8"?>
<svg id="Capa_2" data-name="Capa 2" xmlns="http://www.w3.org/2000/svg" xmlns:xlink="http://www.w3.org/1999/xlink" viewBox="0 0 149.9 149.9">
  <defs>
    <style>
      .cls-1 {
        fill: url(#radial-gradient);
      }

      .cls-1, .cls-2 {
        stroke-width: 0px;
      }

      .cls-2 {
        fill: #fff;
      }
    </style>
    <radialGradient id="radial-gradient" cx="24.18" cy="147.88" fx="24.18" fy="147.88" r="180.88" gradientUnits="userSpaceOnUse">
      <stop offset="0" stop-color="#fec053"/>
      <stop offset=".33" stop-color="#f2203e"/>
      <stop offset=".65" stop-color="#b729a8"/>
      <stop offset="1" stop-color="#5342d6"/>
    </radialGradient>
  </defs>
  <g id="Capa_1-2" data-name="Capa 1">
    <g>
      <circle class="cls-1" cx="74.95" cy="74.95" r="74.95"/>
      <g>
        <path class="cls-2" d="m95.46,122.57h-41.03c-14.95,0-27.11-12.16-27.11-27.11v-41.03c0-14.95,12.16-27.11,27.11-27.11h41.03c14.95,0,27.11,12.16,27.11,27.11v41.03c0,14.95-12.16,27.11-27.11,27.11ZM54.43,35.49c-10.45,0-18.94,8.5-18.94,18.94v41.03c0,10.45,8.5,18.94,18.94,18.94h41.03c10.45,0,18.94-8.5,18.94-18.94v-41.03c0-10.45-8.5-18.94-18.94-18.94h-41.03Z"/>
        <path class="cls-2" d="m74.95,99.33c-13.45,0-24.39-10.94-24.39-24.39s10.94-24.39,24.39-24.39,24.39,10.94,24.39,24.39-10.94,24.39-24.39,24.39Zm0-40.61c-8.95,0-16.22,7.28-16.22,16.22s7.28,16.22,16.22,16.22,16.22-7.28,16.22-16.22-7.28-16.22-16.22-16.22Z"/>
        <path class="cls-2" d="m106.24,49.17c0,3.24-2.62,5.86-5.86,5.86s-5.86-2.62-5.86-5.86,2.62-5.86,5.86-5.86,5.86,2.62,5.86,5.86Z"/>
      </g>
    </g>
  </g>
</svg>