<?xml version="1.0" encoding="UTF-8"?>
<svg id="Capa_2" data-name="Capa 2" xmlns="http://www.w3.org/2000/svg" viewBox="0 0 149.88 149.9">
  <defs>
    <style>
      .cls-1 {
        fill: #1d1d1b;
      }

      .cls-1, .cls-2, .cls-3, .cls-4 {
        stroke-width: 0px;
      }

      .cls-2 {
        fill: #fff;
      }

      .cls-3 {
        fill: #ff0b53;
      }

      .cls-4 {
        fill: #00f0e9;
      }
    </style>
  </defs>
  <g id="Capa_1-2" data-name="Capa 1">
    <g>
      <path class="cls-1" d="m75,0c41.36.01,74.91,33.62,74.88,75-.03,41.37-33.62,74.92-75,74.89C33.5,149.87-.05,116.23,0,74.81.05,33.49,33.64-.01,75,0Z"/>
      <g>
        <path class="cls-3" d="m121.84,50.5c-13.16,0-23.84-10.67-23.84-23.84h-17.88v69.19c0,8.04-6.52,14.57-14.57,14.57s-14.57-6.52-14.57-14.57,6.52-14.57,14.57-14.57c1.51,0,3.22.23,4.59.65v-18.21c-1.5-.21-3.03-.32-4.59-.32-17.92,0-32.44,14.53-32.44,32.44s14.53,32.44,32.44,32.44,32.44-14.53,32.44-32.44v-36.62c6.5,5.3,14.8,8.48,23.84,8.48v-17.21Z"/>
        <path class="cls-4" d="m116.77,45.44c-13.16,0-23.84-10.67-23.84-23.84h-17.88v69.19c0,8.04-6.52,14.57-14.57,14.57s-14.57-6.52-14.57-14.57,6.52-14.57,14.57-14.57c1.51,0,3.22.23,4.59.65v-18.21c-1.5-.21-3.03-.32-4.59-.32-17.92,0-32.44,14.53-32.44,32.44s14.53,32.44,32.44,32.44,32.44-14.53,32.44-32.44v-36.62c6.5,5.3,14.8,8.48,23.84,8.48v-17.21Z"/>
        <path class="cls-2" d="m116.77,49.95c-5.76-1.25-10.75-4.58-14.13-9.16-4.59-3.38-7.91-8.37-9.16-14.13h-13.36v69.19c0,8.04-6.52,14.57-14.57,14.57-5.32,0-9.97-2.85-12.52-7.11-4.26-2.54-7.11-7.19-7.11-12.52,0-8.04,6.52-14.57,14.57-14.57,1.51,0,3.22.23,4.59.65v-13.46c-17.7.26-31.96,14.68-31.96,32.44,0,7.67,2.66,14.71,7.11,20.27,5.55,4.45,12.6,7.11,20.27,7.11,17.92,0,32.44-14.53,32.44-32.44v-36.62c6.5,5.3,14.8,8.48,23.84,8.48v-12.7Z"/>
      </g>
    </g>
  </g>
</svg>