<?xml version="1.0" encoding="UTF-8"?>
<svg id="Capa_2" data-name="Capa 2" xmlns="http://www.w3.org/2000/svg" viewBox="0 0 149.9 149.9">
  <defs>
    <style>
      .cls-1 {
        fill: #e3351f;
      }

      .cls-1, .cls-2 {
        stroke-width: 0px;
      }

      .cls-2 {
        fill: #fff;
      }
    </style>
  </defs>
  <g id="Capa_1-2" data-name="Capa 1">
    <g>
      <path class="cls-2" d="m74.96,46.79c-7.98,0-15.96.02-23.93-.01-2.81-.01-5.49.49-7.92,1.93-5.01,2.96-7.55,7.43-7.6,13.22-.07,8.68-.03,17.37-.01,26.05,0,2.62.55,5.14,1.88,7.42,3,5.13,7.5,7.7,13.44,7.71,16.08.01,32.15,0,48.23,0,2.1,0,4.15-.26,6.06-1.12,6.04-2.7,9.17-7.44,9.27-13.99.13-8.71.06-17.42.02-26.13-.02-4.51-1.68-8.37-5.09-11.39-2.96-2.62-6.47-3.74-10.41-3.72-7.98.04-15.96.01-23.93.01Z"/>
      <g>
        <path class="cls-1" d="m75.05,0c41.22-.02,74.87,33.6,74.86,74.91-.01,41.25-33.46,75.4-75.83,74.98C33.62,149.49-.57,116.48,0,73.77.55,33.35,33.43.04,75.05,0Zm-.09,46.79c-7.98,0-15.96.02-23.93-.01-2.81-.01-5.49.49-7.92,1.93-5.01,2.96-7.55,7.43-7.6,13.22-.07,8.68-.03,17.37-.01,26.05,0,2.62.55,5.14,1.88,7.42,3,5.13,7.5,7.7,13.44,7.71,16.08.01,32.15,0,48.23,0,2.1,0,4.15-.26,6.06-1.12,6.04-2.7,9.17-7.44,9.27-13.99.13-8.71.06-17.42.02-26.13-.02-4.51-1.68-8.37-5.09-11.39-2.96-2.62-6.47-3.74-10.41-3.72-7.98.04-15.96.01-23.93.01Z"/>
        <path class="cls-1" d="m64.6,87.03v-24.16c6.95,4.05,13.76,8.02,20.77,12.11-7.01,4.07-13.8,8.01-20.77,12.05Z"/>
      </g>
    </g>
  </g>
</svg>