<?xml version="1.0" encoding="UTF-8"?>
<svg id="Capa_2" data-name="Capa 2" xmlns="http://www.w3.org/2000/svg" viewBox="0 0 149.9 149.89">
  <defs>
    <style>
      .cls-1 {
        fill: #1d1d1b;
      }

      .cls-1, .cls-2 {
        stroke-width: 0px;
      }

      .cls-2 {
        fill: #fff;
      }
    </style>
  </defs>
  <g id="Capa_1-2" data-name="Capa 1">
    <g>
      <path class="cls-2" d="m119.93,116.84c-10.91-14.57-21.81-29.14-32.71-43.72-1.28-1.71-2.56-3.43-3.86-5.17,10.91-11.78,21.79-23.54,32.76-35.39-.25-.02-.34-.04-.43-.04-2.38,0-4.75-.02-7.13.02-.29,0-.65.22-.86.45-7.63,8.22-15.25,16.46-22.87,24.7-1.67,1.81-3.35,3.61-5.06,5.46-.19-.24-.34-.44-.49-.64-7.33-9.8-14.67-19.61-22-29.41-.29-.38-.57-.58-1.08-.58-8.53.02-17.05.01-25.58.01h-.82c11.74,15.7,23.36,31.23,35,46.8-11.72,12.66-23.41,25.29-35.16,37.98.2.03.28.06.37.06,2.4,0,4.8.01,7.2-.01.25,0,.56-.19.75-.39,1.82-1.93,3.62-3.88,5.42-5.83,7.48-8.08,14.95-16.16,22.43-24.24.85-.91,1.7-1.82,2.58-2.75.19.24.32.4.44.56,7.96,10.64,15.92,21.28,23.86,31.94.41.55.82.74,1.49.74,8.39-.02,16.77-.01,25.16-.02.3,0,.6-.03.9-.04v-.14c-.11-.11-.23-.22-.33-.34Zm-23.33-5.4c-.25,0-.57-.27-.74-.5-4.28-5.69-8.54-11.4-12.81-17.1-11.71-15.65-23.42-31.31-35.13-46.96-2.06-2.76-4.12-5.52-6.23-8.35.24-.03.41-.07.58-.07,3.7,0,7.41-.01,11.11.02.29,0,.67.2.84.43,14.58,19.46,29.15,38.94,43.72,58.41,3.33,4.45,6.66,8.91,9.99,13.36.16.22.31.44.55.78-4.06,0-7.97,0-11.88-.02Z"/>
      <g>
        <path class="cls-1" d="m97.94,97.32c-14.57-19.47-29.13-38.95-43.72-58.41-.17-.23-.56-.42-.84-.43-3.7-.03-7.41-.02-11.11-.02-.17,0-.34.04-.58.07,2.11,2.83,4.17,5.59,6.23,8.35,11.71,15.65,23.42,31.31,35.13,46.96,4.27,5.7,8.53,11.41,12.81,17.1.17.23.49.5.74.5,3.91.03,7.82.02,11.88.02-.24-.34-.39-.56-.55-.78-3.33-4.46-6.66-8.91-9.99-13.36Z"/>
        <path class="cls-1" d="m75.05,0C33.43.04.55,33.35,0,73.77c-.58,42.7,33.61,75.72,74.07,76.12,42.36.42,75.81-33.73,75.82-74.98C149.92,33.59,116.27-.02,75.05,0Zm45.21,117.33c-.3.01-.6.04-.9.04-8.39,0-16.77,0-25.16.02-.67,0-1.09-.19-1.49-.74-7.94-10.66-15.9-21.3-23.86-31.94-.12-.17-.26-.33-.44-.56-.87.93-1.73,1.84-2.58,2.75-7.48,8.08-14.96,16.16-22.43,24.24-1.8,1.95-3.6,3.9-5.42,5.83-.18.2-.49.38-.75.39-2.4.03-4.8.02-7.2.01-.08,0-.17-.03-.37-.06,11.75-12.69,23.44-25.32,35.16-37.98-11.64-15.56-23.26-31.1-35-46.8h.82c8.53,0,17.05,0,25.58-.01.51,0,.8.2,1.08.58,7.33,9.81,14.66,19.61,22,29.41.15.2.31.4.49.64,1.71-1.85,3.39-3.65,5.06-5.46,7.62-8.23,15.24-16.47,22.87-24.7.21-.23.57-.44.86-.45,2.38-.04,4.75-.02,7.13-.02.09,0,.17.01.43.04-10.97,11.85-21.85,23.61-32.76,35.39,1.3,1.74,2.58,3.45,3.86,5.17,10.9,14.57,21.81,29.15,32.71,43.72.09.13.22.23.33.34v.14Z"/>
      </g>
    </g>
  </g>
</svg>