<?xml version="1.0" encoding="UTF-8"?>
<svg id="Capa_2" data-name="Capa 2" xmlns="http://www.w3.org/2000/svg" viewBox="0 0 149.88 149.9">
  <defs>
    <style>
      .cls-1 {
        fill: #fff;
      }

      .cls-1, .cls-2 {
        stroke-width: 0px;
      }

      .cls-2 {
        fill: #fb0;
      }
    </style>
  </defs>
  <g id="Capa_1-2" data-name="Capa 1">
    <g>
      <path class="cls-2" d="m75,0c41.36.01,74.91,33.62,74.88,75-.03,41.37-33.62,74.92-75,74.89C33.5,149.87-.05,116.23,0,74.81.05,33.49,33.64-.01,75,0Z"/>
      <path class="cls-1" d="m116.24,24.35c0-.67-.09-1.36-.27-2.04-.3-1.13-.8-2.03-1.44-2.78-.67-.84-1.51-1.53-2.47-2.04,0,0-.01,0-.02,0-.21-.13-.43-.26-.65-.39-4.98-2.67-12-3.95-20.17-1.75-2.91.78-5.6,2.02-7.98,3.68-.1.07-.22.08-.32.03-4.37-1.96-9.22-3.06-14.32-3.06-19.31,0-34.97,15.65-34.97,34.95,0,10.14,4.32,19.27,11.23,25.66.13.12.14.32.03.46-7.46,8.5-10.74,21.93-3.02,30.9,0,0,0,.01.02.02,7.42,7.7,18.68,7.42,25.7,4.36l19.81-7.53c.56-.21,1.13-.39,1.71-.52,1.81-.42,3.75-.58,5.57-.13.85.21,1.66.59,2.38,1.09,7.52,5.27,3.18,14.75-2.01,19.75,0,0,0,0-.01.01-5.59,4.84-10.8,7.66-15.95,8.77-.32.07-.54-.33-.3-.56.05-.05.11-.11.17-.16,3.75-3.61,3.87-9.59.35-13.24-3.61-3.75-9.59-3.87-13.34-.25-3.65,3.52-3.77,9.49-.15,13.24,2.25,2.33,4.83,2.78,7.81,2.84,6.77-.07,14.6-3.11,22.2-9.84,2.83-2.73,5.08-5.86,6.64-9.3.01-.02.02-.05.03-.07,3.67-9.44,3.24-18.11-3.04-25.02-.31-.34-.64-.66-1-.94-8.44-6.68-18.88-3.79-22.32-2.59l-17.31,6.54c-.42.16-.83.34-1.24.52-1.16.53-2.39.85-3.62,1.18-2.4.55-5.29.8-7.66-.25-4.24-1.97-6.42-7.68-4.04-13.31,0,0,0-.02.01-.03,1.02-1.95,2.09-3.46,3.35-4.86.12-.13.32-.15.46-.03,6.09,5.13,13.95,8.22,22.54,8.22,19.31,0,34.97-15.65,34.97-34.95,0-13.38-7.53-25.01-18.58-30.88-.21-.11-.24-.4-.05-.55,1.78-1.43,3.96-2.5,6.04-3.13.22-.07.44-.12.66-.18.15-.03.3-.07.44-.11,5.39-1.5,10.33-1.14,14.41.09.32.1.31.55,0,.63,0,0-.01,0-.02,0-.68.18-1.31.45-1.89.78-.02.01-.04.02-.06.04-.03.01-.05.03-.08.04-1.34.8-2.42,1.99-3.08,3.41-.75,1.6-.97,3.45-.48,5.25.18.67.44,1.3.78,1.88.02.04.04.07.06.11,0,0,0,.01.01.02,1.35,2.26,3.81,3.79,6.62,3.82,0,0,.02,0,.03,0,.02,0,.04,0,.06,0,.02,0,.03,0,.05,0,.67,0,1.36-.09,2.04-.27,1.75-.47,3.21-1.54,4.21-2.93.93-1.27,1.48-2.82,1.5-4.51,0-.01,0-.02,0-.04,0-.02,0-.03,0-.05,0-.02,0-.03,0-.05Zm-47.64,60.43c-8.74,0-15.82-15.14-15.82-33.82s7.08-33.82,15.82-33.82,15.82,15.14,15.82,33.82-7.08,33.82-15.82,33.82Z"/>
    </g>
  </g>
</svg>